{"title":"1920 London Hindi 2016 DesiSCR x264-HDF.mp4","uid":15648064,"size":734401104,"categoryP":"video","categoryS":"movies","magnet":"?xt=urn:btih:6690661b66e0001d8d0e54f800962545931a8246&amp;dn=1920+London+Hindi+2016+DesiSCR+x264-HDF.mp4&amp;tr=udp%3A%2F%2Ftracker.leechers-paradise.org%3A6969&amp;tr=udp%3A%2F%2Fzer0day.ch%3A1337&amp;tr=udp%3A%2F%2Fopen.demonii.com%3A1337&amp;tr=udp%3A%2F%2Ftracker.coppersurfer.tk%3A6969&amp;tr=udp%3A%2F%2Fexodus.desync.com%3A6969","seeders":0,"leechers":1,"uploader":null,"files":1,"time":1472066980,"description":"http://www.movierulzfull.in/ presents:\r\n\r\n1920 London Hindi 2016 DesiSCR x264-HDF.mp4\r\n\r\nScreens:\r\n \nhttp://extraimago.com/images/2016/08/24/wEGr.png \nhttp://extraimago.com/images/2016/08/24/wEGG.png \nhttp://extraimago.com/images/2016/08/24/wEGP.png \nhttp://extraimago.com/images/2016/08/24/wEGX.png \nhttp://extraimago.com/images/2016/08/24/wEGg.png\r\n\r\nInfo:\r\n\r\n\r\nFormat : MPEG-4\r\nFormat profile : Base Media\r\nCodec ID : isom (isom/iso2/avc1/mp41)\r\nFile size : 700 MiB\r\nDuration : 1 h 58 min\r\nOverall bit rate : 829 kb/s\r\nWriting application : Lavf57.20.100\r\n\r\nVideo\r\nID : 1\r\nFormat : AVC\r\nFormat/Info : Advanced Video Codec\r\nFormat profile :   \r\nFormat settings, CABAC : Yes\r\nFormat settings, ReFrames : 4 frames\r\nCodec ID : avc1\r\nCodec ID/Info : Advanced Video Coding\r\nDuration : 1 h 58 min\r\nBit rate : 760 kb/s\r\nWidth : 640 pixels\r\nHeight : 272 pixels\r\nDisplay aspect ratio : 2.35:1\r\nFrame rate mode : Constant\r\nFrame rate : 25.000 FPS\r\nColor space : YUV\r\nChroma subsampling : 4:2:0\r\nBit depth : 8 bits\r\nScan type : Progressive\r\nBits/(Pixel*Frame) : 0.175\r\nStream size : 642 MiB (92%)\r\nWriting library : x264 core 142 r2431 ac76440\r\nEncoding settings : cabac=1 / ref=3 / deblock=1:0:0 / analyse=0x3:0x113 / me=hex / subme=7 / psy=1 / psy_rd=1.00:0.00 / mixed_ref=1 / me_range=16 / chroma_me=1 / trellis=1 / 8x8dct=1 / cqm=0 / deadzone=21,11 / fast_pskip=1 / chroma_qp_offset=-2 / threads=1 / lookahead_threads=1 / sliced_threads=0 / nr=0 / decimate=1 / interlaced=0 / bluray_compat=0 / constrained_intra=0 / bframes=3 / b_pyramid=2 / b_adapt=1 / b_bias=0 / direct=1 / weightb=1 / open_gop=0 / weightp=2 / keyint=250 / keyint_min=25 / scenecut=40 / intra_refresh=0 / rc_lookahead=40 / rc=2pass / mbtree=1 / bitrate=760 / ratetol=1.0 / qcomp=0.60 / qpmin=0 / qpmax=69 / qpstep=4 / cplxblur=20.0 / qblur=0.5 / ip_ratio=1.40 / aq=1:1.00\r\n\r\nAudio\r\nID : 2\r\nFormat : AAC\r\nFormat/Info : Advanced Audio Codec\r\nFormat profile : HE-AAC / LC\r\nCodec ID : 40\r\nDuration : 1 h 58 min\r\nBit rate mode : Constant\r\nBit rate : 64.0 kb/s\r\nChannel(s) : 2 channels\r\nChannel positions : Front: L R\r\nSampling rate : 48.0 kHz / 24.0 kHz\r\nFrame rate : 23.438 FPS (1024 spf)\r\nCompression mode : Lossy\r\nStream size : 54.1 MiB (8%)\r\nLanguage : Hindi\r\nDefault : Yes\r\nAlternate group : 1 \r\n \nhttp://www.movierulzfull.in/1920-london-full-movie-watch/\r\n \nhttp://tvmoviereviews.drupalgardens.com/content/1920-london-review","torrent":{"xt":"urn:btih:6690661b66e0001d8d0e54f800962545931a8246","amp;dn":"1920+London+Hindi+2016+DesiSCR+x264-HDF.mp4","amp;tr":["udp%3A%2F%2Ftracker.leechers-paradise.org%3A6969","udp%3A%2F%2Fzer0day.ch%3A1337","udp%3A%2F%2Fopen.demonii.com%3A1337","udp%3A%2F%2Ftracker.coppersurfer.tk%3A6969","udp%3A%2F%2Fexodus.desync.com%3A6969"],"infoHash":"6690661b66e0001d8d0e54f800962545931a8246","infoHashBuffer":{"type":"Buffer","data":[102,144,102,27,102,224,0,29,141,14,84,248,0,150,37,69,147,26,130,70]},"announce":[],"urlList":[]}}